<svg width="146" height="100" viewBox="0 0 146 100" fill="none" xmlns="http://www.w3.org/2000/svg">
<g clip-path="url(#clip0_1998_19919)">
<path fill-rule="evenodd" clip-rule="evenodd" d="M11.4404 54.8132C12.4739 54.722 13.2036 54.7391 14.2461 54.7663C17.2938 59.9067 20.3274 65.316 23.2773 70.5212L25.5205 70.5105C25.5598 73.1943 25.5292 75.9465 25.5293 78.6355L22.0195 78.6443L22.0127 73.8747L14.2295 73.8757C10.6706 73.8568 7.11148 73.8657 3.55273 73.9021C3.55086 75.4817 3.53848 77.062 3.51562 78.6413L0.224609 78.6267L0.212891 70.5163L2.30176 70.5193C3.16364 68.9162 10.977 55.1566 11.4404 54.8132ZM12.5674 60.0915C10.7745 63.5975 8.47607 67.0698 6.67578 70.5222C8.72504 70.4961 10.7748 70.4907 12.8242 70.5056C14.7515 70.5078 16.748 70.482 18.6689 70.5134C18.0334 69.3271 13.1636 60.6062 12.5674 60.0915Z" fill="black"/>
<path fill-rule="evenodd" clip-rule="evenodd" d="M70.4227 57.9474C72.8004 57.6141 75.8108 58.1452 77.8368 59.5461C81.2294 61.8916 81.8011 67.4238 79.4784 70.7013C78.0053 72.7803 75.4635 73.6552 73.0038 74.0451C70.4808 74.3091 67.6706 73.8736 65.5722 72.3556C62.1054 69.8383 61.6332 64.465 64.1376 61.1134C65.749 58.9571 67.9135 58.3222 70.4227 57.9474ZM72.6659 70.6662C79.4744 69.4159 77.8332 60.1938 70.8983 61.338C67.8996 61.833 65.9756 63.778 66.5683 66.9621C66.7774 68.1504 67.4667 69.2009 68.4735 69.8664C69.7533 70.7044 71.1897 70.7487 72.6659 70.6662Z" fill="black"/>
<path fill-rule="evenodd" clip-rule="evenodd" d="M91.5117 58.2595C94.5504 58.2542 99.6768 57.6633 99.1084 62.4665C98.9818 63.5352 98.1855 64.1522 97.3711 64.7605C97.5715 64.8217 97.7701 64.8908 97.9658 64.9665C100.711 66.0514 100.759 69.2183 99.7949 71.5798C99.6086 71.9104 99.3778 72.2134 99.1084 72.4802C97.3459 74.2037 93.7318 73.874 91.3975 73.8669L84.3975 73.8601C84.3998 68.6857 84.4434 63.4486 84.3789 58.279L91.5117 58.2595ZM96.0918 70.2927C98.9241 65.9669 90.1986 67.148 88.04 67.1706L88.0215 70.5984C89.6034 70.6156 94.9569 70.8763 96.0918 70.2927ZM92.2051 61.4519C90.8224 61.4789 89.4104 61.4882 88.0254 61.5095C88.0336 62.3847 88.0158 63.5232 88.0908 64.3718C89.3318 64.3766 94.267 64.61 95.085 64.0007C96.2297 61.4459 94.0484 61.4156 92.2051 61.4519Z" fill="black"/>
<path d="M86.2961 23.2783C86.8141 23.5402 97.3539 42.3027 98.7391 44.4258L92.139 44.4077C90.3683 41.7385 88.1277 37.4611 86.4039 34.5485C86.0664 34.8019 81.1855 43.4743 80.6441 44.415C78.5887 44.4903 76.1605 44.4303 74.0898 44.4301L86.2961 23.2783Z" fill="black"/>
<path fill-rule="evenodd" clip-rule="evenodd" d="M107.835 58.2931L107.819 63.8967C110.13 63.8767 113.648 63.6294 115.783 64.1525C119.316 65.0188 119.281 70.0943 117.289 72.4767C115.288 74.1894 113.156 73.8779 110.694 73.8908C108.487 73.9025 106.27 73.8758 104.062 73.8644C104.163 68.7944 104.113 63.3629 104.07 58.2863C105.325 58.2765 106.58 58.2786 107.835 58.2931ZM114.528 70.257C117.133 66.0048 109.962 67.0008 107.803 67.0422C107.805 68.2297 107.819 69.4334 107.81 70.6193C109.258 70.6415 113.547 70.9117 114.528 70.257Z" fill="black"/>
<path d="M98.9547 84.1664C100.027 84.1448 101.146 84.1655 102.223 84.1701C102.125 89.25 102.171 94.6902 102.215 99.7777C100.995 99.7836 99.775 99.7754 98.5551 99.7531C98.4543 96.4898 98.534 92.7869 98.5305 89.4892C97.7606 90.2116 96.4305 91.839 95.6817 92.6769C93.591 95.0168 91.5637 97.4428 89.4379 99.752C88.375 99.8 87.3871 99.7672 86.3242 99.7391C86.4848 94.7655 86.357 89.1797 86.3523 84.1604L90.0344 84.1677C89.95 87.5605 90.0895 90.9937 89.9641 94.3932C90.843 93.5579 91.6938 92.4347 92.5188 91.5316C94.6375 89.2117 96.782 86.3924 98.9547 84.1664Z" fill="black"/>
<path d="M58.9466 84.1592L62.0264 84.1736C61.9204 88.3776 62.0674 92.6324 62.012 96.8405C61.9993 97.8028 62.0506 98.7857 61.967 99.7452L58.3727 99.7358C58.4561 96.3391 58.3402 92.8706 58.423 89.4379C55.42 92.8336 52.3084 96.4643 49.225 99.7628L46.1882 99.7312L46.1738 84.1855L49.888 84.173C49.8425 87.5294 49.9339 90.8953 49.8569 94.2645C52.8295 91.0693 55.9457 87.212 58.9466 84.1592Z" fill="black"/>
<path d="M119.088 84.1871C120.094 84.1364 121.386 84.1727 122.414 84.1731C122.4 85.8405 122.504 99.2919 122.307 99.7406L118.72 99.743C118.864 96.3428 118.693 92.811 118.805 89.3587C115.833 92.6694 112.659 96.5952 109.619 99.7465C108.621 99.7593 107.596 99.7441 106.596 99.7406C106.437 94.8672 106.589 89.1269 106.591 84.1846L110.275 84.1783C110.173 87.5556 110.324 90.9812 110.208 94.3641C111.128 93.4487 112.379 91.9095 113.275 90.8804L119.088 84.1871Z" fill="black"/>
<path d="M72.9353 0.0908203C73.3548 0.37785 84.0036 19.0103 85.3372 21.3031C84.6142 22.5201 83.7833 23.851 83.1646 25.1105L82.1462 23.9739C77.7013 18.7058 72.9212 13.2263 68.3555 8.05196C69.9045 5.46167 71.4294 2.71462 72.9353 0.0908203Z" fill="black"/>
<path d="M52.0152 36.3931C53.6073 36.5901 56.2 37.2634 57.9043 37.5626C63.3134 38.5125 68.6694 39.6913 74.0866 40.6357C73.3929 41.9162 72.6745 43.1834 71.9315 44.4367L69.7483 44.4285L47.3105 44.4305C48.6723 42.4175 50.7028 38.6253 52.0152 36.3931Z" fill="black"/>
<path d="M66.3763 84.1646L70.0319 84.1682L70.0049 90.2423C72.7935 90.2534 75.5814 90.2496 78.3704 90.2308L78.3306 84.1671L81.9845 84.1724C81.9247 89.2235 82.0384 94.2996 81.9681 99.3513C81.9634 99.6302 81.9903 99.5634 81.79 99.745L78.3107 99.7579C78.4173 97.8881 78.3611 95.5559 78.3622 93.6512L70.0227 93.6676C69.9845 95.6734 70.0158 97.744 70.0228 99.7555L66.3281 99.7415C66.4479 97.9244 66.3919 95.6804 66.3901 93.8342L66.3763 84.1646Z" fill="black"/>
<path d="M62.2774 18.5918C62.6618 18.7728 66.731 21.8691 67.2818 22.279C71.3648 25.2797 75.4289 28.305 79.4753 31.3548C78.9515 32.3487 78.2941 33.4445 77.7339 34.4312C77.3285 34.1812 76.6921 33.9071 76.2457 33.6986C70.9476 31.334 65.568 29.1239 60.2611 26.7761C59.5184 26.4476 58.7859 26.1335 58.0156 25.8732C59.4786 23.5225 60.8503 20.9934 62.2774 18.5918Z" fill="black"/>
<path d="M67.2991 9.79297C67.7519 9.9953 80.8279 25.253 82.1521 26.7682C81.6177 27.7487 81.0001 28.7675 80.4341 29.7373C79.9103 29.4037 79.4158 29.0208 78.9177 28.6482C73.956 24.8388 68.2362 20.5887 63.1562 16.9754C64.3573 15.1403 66.3079 11.7282 67.2991 9.79297Z" fill="black"/>
<path d="M57.148 27.4922C57.5955 27.6282 58.2583 27.9307 58.6937 28.1285C64.6706 30.8427 70.8391 33.248 76.7957 35.9931C76.293 36.9758 75.6297 38.0471 75.0637 39.0084C74.4051 38.8289 73.6914 38.6736 73.0235 38.5153C71.4028 38.2894 69.6062 37.8517 67.9713 37.5724C63.0489 36.7317 57.8834 35.4554 52.9648 34.7167C54.0978 32.5289 55.8682 29.6429 57.148 27.4922Z" fill="black"/>
<path d="M50.3411 58.2826C51.2777 58.2453 52.368 58.2754 53.3164 58.2796C54.176 59.9325 55.4421 62.0174 56.3845 63.6622L62.2493 73.863C60.7688 73.8206 59.1574 73.8617 57.6675 73.8712C56.0045 70.8279 54.1183 67.6687 52.3809 64.6498L51.7386 63.518C49.7326 66.6311 47.658 70.5823 45.7481 73.8613C44.3041 73.8433 42.8598 73.8515 41.416 73.8858L50.3411 58.2826Z" fill="black"/>
<path d="M32.6536 84.1538L35.6202 84.1699C36.3013 85.5966 37.8308 88.0868 38.6539 89.5225L44.537 99.737C43.0191 99.7382 41.501 99.7511 39.9832 99.778C38.2644 96.6631 36.3388 93.4389 34.5495 90.3461L33.9532 89.4034L28.0302 99.7722C26.6209 99.7277 25.0514 99.7476 23.6309 99.7394C24.6442 98.2984 25.9959 95.766 26.8957 94.1963L32.6536 84.1538Z" fill="black"/>
<path d="M120.66 58.2918C121.854 58.2555 123.123 58.2859 124.323 58.2949C124.236 63.3749 124.291 68.7505 124.325 73.8372L120.677 73.8613L120.66 58.2918Z" fill="black"/>
<path d="M128.586 58.2885C134.175 58.1588 140.343 58.2743 145.959 58.277L144.749 60.4229L144.029 61.6535C138.932 61.7107 133.682 61.6843 128.582 61.6495C128.541 60.5823 128.577 59.3676 128.586 58.2885Z" fill="black"/>
<path d="M28.2676 58.2903C33.8804 58.1548 40.001 58.2781 45.65 58.2852C45.2442 58.9859 44.8467 59.7144 44.45 60.4223L43.6862 61.672L28.3014 61.6685C28.3126 60.5225 28.3272 59.4376 28.2676 58.2903Z" fill="black"/>
<path d="M128.591 64.3687C133.192 64.2817 137.881 64.4422 142.494 64.3466L141.252 66.5128L140.493 67.7346C136.587 67.7958 132.509 67.7341 128.592 67.7323C128.556 66.6416 128.584 65.4663 128.591 64.3687Z" fill="black"/>
<path d="M28.2932 64.3585C32.765 64.3633 37.7545 64.4781 42.185 64.3311L40.9294 66.5158L40.1635 67.7414L28.2461 67.7246L28.2932 64.3585Z" fill="black"/>
<path d="M128.874 70.4962C132.199 70.5015 135.638 70.5454 138.954 70.4858L137.774 72.5976L137.022 73.8724C134.622 73.7579 131.056 73.8554 128.581 73.8542C128.57 73.1389 128.502 71.206 128.642 70.6028L128.874 70.4962Z" fill="black"/>
<path d="M31.8873 70.5024C34.0362 70.5082 36.5472 70.5733 38.6669 70.4673L36.704 73.8922L35.4118 73.8603L28.2493 73.8451C28.273 72.6929 28.2741 71.6808 28.2344 70.5296C29.3536 70.472 30.7478 70.5059 31.8873 70.5024Z" fill="black"/>
</g>
<defs>
<clipPath id="clip0_1998_19919">
<rect width="146" height="100" fill="white"/>
</clipPath>
</defs>
</svg>
