<svg width="1840" height="664" viewBox="0 0 1840 664" fill="none" xmlns="http://www.w3.org/2000/svg">
<path d="M1833.62 326.518C1833.62 126.606 1749.24 4.18341 1572.5 3.42038H1571.5L999.261 0.707764H994.711H615.458H570.705H547.951L311.297 593.574L73.8848 1.47078H6.37793V652.326H50.3712V87.692L48.8541 62.5124H50.3712L288.541 651.565H332.535L570.705 63.2754V651.565H571.464H615.458H971.955H1010.64L1569.66 649.275C1737.29 642.408 1833.62 521.087 1833.62 326.518ZM616.216 612.65V333.385H969.679V294.47H616.216V40.3847H995.468H1000.02H1383.06L1348.17 88.455C1339.83 98.3743 1332.24 109.057 1324.66 120.502L971.955 607.308V612.65H616.216ZM1279.15 253.268C1276.11 276.158 1273.84 301.337 1273.84 327.281C1273.84 463.097 1320.87 563.053 1405.82 613.413H1020.5L1279.15 253.268ZM1553.73 613.413C1433.13 613.413 1317.07 540.163 1317.07 326.518C1317.07 112.872 1433.13 39.6217 1553.73 39.6217C1674.33 39.6217 1790.38 112.872 1790.38 326.518C1790.38 540.163 1674.33 613.413 1553.73 613.413Z" fill="black"/>
</svg>

