<svg width="133" height="48" viewBox="0 0 133 48" fill="none" xmlns="http://www.w3.org/2000/svg">
<g clip-path="url(#clip0_1121_1335)">
<path d="M132.539 23.6178C132.539 9.15775 125.192 0.272032 112.417 0.216841L112.856 0.0512695H72.2291H71.9002H44.4868H41.252H39.6072L22.5013 42.9345L5.34051 0.10646H0.460938V47.1841H3.64089V6.34302L3.53123 4.52172H3.64089L20.8564 47.129H24.0364L41.252 4.57691V47.129H41.3068H44.4868H70.2553H73.0515H114.062L113.459 46.9634C125.576 46.4668 132.539 37.6914 132.539 23.6178ZM44.5417 44.3143V24.1145H70.0908V21.2997H44.5417V2.92118H71.9549H72.2839H99.9714L97.4494 6.39821C96.8463 7.11569 96.298 7.88836 95.7497 8.71622L70.2553 43.9279V44.3143H44.5417ZM92.4601 18.3194C92.2408 19.9751 92.0764 21.7964 92.0764 23.673C92.0764 33.4968 95.4756 40.7268 101.616 44.3695H73.7643L92.4601 18.3194ZM112.308 44.3695C103.59 44.3695 95.2015 39.0712 95.2015 23.6178C95.2015 8.16431 103.59 2.86599 112.308 2.86599C121.024 2.86599 129.413 8.16431 129.413 23.6178C129.413 39.0712 121.024 44.3695 112.308 44.3695Z" fill="black"/>
</g>
<defs>
<clipPath id="clip0_1121_1335">
<rect width="133" height="48" fill="white"/>
</clipPath>
</defs>
</svg>
